<svg width="72" height="72" viewBox="0 0 72 72" fill="none" xmlns="http://www.w3.org/2000/svg">
  <rect width="72" height="72" rx="22" fill="#32FF8A"/>
  <path d="M18 24C18 21.7909 19.7909 20 22 20H50C52.2091 20 54 21.7909 54 24V48C54 50.2091 52.2091 52 50 52H22C19.7909 52 18 50.2091 18 48V24Z" fill="#09090B"/>
  <path d="M28 31C28 29.3431 29.3431 28 31 28H41C42.6569 28 44 29.3431 44 31V31C44 32.6569 42.6569 34 41 34H31C29.3431 34 28 32.6569 28 31V31Z" fill="#32FF8A"/>
  <path d="M28 38C28 36.3431 29.3431 35 31 35H41C42.6569 35 44 36.3431 44 38V38C44 39.6569 42.6569 41 41 41H31C29.3431 41 28 39.6569 28 38V38Z" fill="#32FF8A"/>
  <path d="M28 45C28 43.3431 29.3431 42 31 42H38C39.6569 42 41 43.3431 41 45V45C41 46.6569 39.6569 48 38 48H31C29.3431 48 28 46.6569 28 45V45Z" fill="#32FF8A"/>
</svg>
